<?xml version="1.0" encoding="UTF-8"?>
<!DOCTYPE svg PUBLIC "-//W3C//DTD SVG 1.1//EN" "http://www.w3.org/Graphics/SVG/1.1/DTD/svg11.dtd">
<!-- Creator: CorelDRAW 2019 -->
<svg xmlns="http://www.w3.org/2000/svg" xml:space="preserve" width="60.96mm" height="60.96mm" version="1.1" style="shape-rendering:geometricPrecision; text-rendering:geometricPrecision; image-rendering:optimizeQuality; fill-rule:evenodd; clip-rule:evenodd"
viewBox="0 0 6096 6096"
 xmlns:xlink="http://www.w3.org/1999/xlink"
 xmlns:xodm="http://www.corel.com/coreldraw/odm/2003">
 <defs>
  <style type="text/css">
   <![CDATA[
    .fil10 {fill:#007EF6}
    .fil16 {fill:#0090C3}
    .fil13 {fill:#009D96}
    .fil5 {fill:#00AB64}
    .fil8 {fill:#00B149}
    .fil4 {fill:#00BA25}
    .fil15 {fill:#01A382}
    .fil3 {fill:#09E00E}
    .fil1 {fill:#0BAA0F}
    .fil2 {fill:#0DC313}
    .fil17 {fill:#4978C8}
    .fil14 {fill:#877A86}
    .fil9 {fill:#A57D65}
    .fil6 {fill:#B37E55}
    .fil11 {fill:#C17F45}
    .fil0 {fill:#C7F00F}
    .fil7 {fill:#DA8129}
    .fil12 {fill:#F4830B}
   ]]>
  </style>
   <clipPath id="id0">
    <rect x="110.06" y="118.53" width="5860.36" height="5860.36"/>
   </clipPath>
 </defs>
 <g id="Capa_x0020_1">
  <metadata id="CorelCorpID_0Corel-Layer"/>
  <g style="clip-path:url(#id0)">
   <image id="LOGO.png" x="110.06" y="118.53" width="5860.36" height="5860.36" xlink:href="logo_Images\logo_ImgID1.png"/>
  </g>
  <g id="_783418848">
   <path class="fil0" d="M110.06 3189.4c2.66,99.57 11.19,197.73 35.41,316.08 34.36,167.94 49.52,299.29 113.33,481.86l96.37 247.01c138.49,265.32 106.23,220.53 279.05,499.28 62.36,100.61 232.13,290.36 314.26,372.5 132.07,132.07 305.8,286.24 466.24,392.22 36.64,24.19 68.49,37.93 106.42,65.26 36.45,26.26 70.15,39.02 109.03,62.67l610.26 248.18c257.44,83.64 477.61,101.33 717.84,104.43l322.34 0c113.83,0 361.07,-54.94 490.71,-81.59 38.07,-7.82 33.19,-11.3 68.73,-22.84 23.21,-7.55 35.09,-7.29 65.17,-14.94l193.47 -69.79c96.53,-34.17 264.37,-110.38 351.62,-163.45 310.62,-188.97 408.99,-247.46 681.69,-520.15 64.01,-64.01 108.23,-107.63 164.58,-178.79 138.38,-174.74 157.32,-197.66 282.6,-404.16l169.53 -345.56c44.69,-128.13 99.89,-251.76 129.29,-385.77 47.67,-217.28 80.85,-405.49 92.42,-596l0 -295.88c-5.88,-97.03 -17.63,-198.31 -36.07,-307.38l-56.2 -287.18c-64.21,-298.93 -286.25,-750.91 -470.24,-983.4l-114.44 -148.83c-147.69,-181.3 -390.11,-410.07 -576.87,-533.39l-269.01 -165.93c-133.38,-77.49 -380.5,-181.67 -535.89,-230.98 -139.22,-44.2 -555.63,-124.35 -665.43,-124.35l-412.06 0c-116.06,0 -440.18,62.17 -582.26,104.5 -50.99,15.2 -78.63,18.43 -132.26,39.44 -228.7,89.61 -240.99,73.92 -479.53,207.21 -36.69,20.51 -77.8,41.22 -110.34,61.37 -21.14,13.08 -25.63,19.55 -46.84,33.27l-161.47 101.78c-418.39,313.28 -791.12,756.98 -985.9,1246.08 -111.65,280.35 -225.55,691.53 -225.55,987.73l0 289.49z"/>
   <path class="fil1" d="M1229.84 2018.69l-229.35 148.68 431.18 717.21c17.86,32.37 32.64,52.27 51.74,84.68 20.77,35.23 36.14,66.63 55.83,93.14 9.87,13.29 19.8,23.45 30.66,38.1l316.81 473.35c26.31,44.97 25.98,40.82 56.66,80.37l174.5 260.78c79.15,118.03 36.08,77.2 46.65,242.45 15.25,238.15 26.54,1308.61 63.05,1371.6l187.13 27.85 129.99 14.64c21.89,-128.8 9.45,-684.98 -3.02,-819.94 -23.36,-252.68 7.94,-571.85 -0.85,-834.05 -2.48,-74.03 -99.39,-194.11 -147.26,-267.34 -62.55,-95.72 -106.22,-161.27 -166.44,-257.02l-304.21 -475.41c-20.25,-29.08 -7.33,-17.29 -19.26,-20.13 -55.57,0.78 -98.38,14.59 -127.78,-28.08 -39.52,-40.14 13.53,-99.65 4.17,-165.97l-234.92 -368.38c-43.35,-65.4 -205.94,-335.84 -244.68,-363.42 -19.68,8.48 -20.81,9.25 -38.79,20.61 -17,10.73 -22.8,13.41 -31.81,26.28z"/>
   <path class="fil1" d="M4250.02 2688.44c-4.17,63.2 73.25,149.44 -12.18,180.06l-111.64 8.97c-82.29,150.68 -365.06,564.47 -482.26,752.34 -59.81,95.86 -147.68,197.92 -149.42,276.5 -5.8,260.86 19.88,570.43 -0.3,823.35 -18.57,232.93 -16.38,579.49 -6.71,825.71l88.31 -10.36 26.97 -9.33c39.83,-8.74 190.98,-5.13 204.96,-33.82l11.44 -25.36c14.67,-46.91 4.2,-180.4 8.19,-241.6 15.64,-239.66 17.47,-617.03 34.24,-825.71 7.1,-88.21 3.68,-189.95 9.33,-274.35 14.91,-222.86 -18.38,-143.66 135.83,-370.6l438.27 -649.11c24.04,-29.42 32.38,-47.36 56.08,-81.29l535.06 -885.01c-20.99,-21.19 -20.92,-19.92 -51.29,-36.36l-166.34 -107.5 -82.18 -53.92 -486.36 737.39z"/>
   <path class="fil2" d="M4818.56 2004.97l166.34 107.5c30.37,16.44 30.3,15.17 51.29,36.36l-535.06 885.01c-23.7,33.93 -32.04,51.87 -56.08,81.29l-438.27 649.11c-154.21,226.94 -120.92,147.74 -135.83,370.6 -5.65,84.4 -2.23,186.14 -9.33,274.35 -16.77,208.68 -18.6,586.05 -34.24,825.71 -3.99,61.2 6.48,194.69 -8.19,241.6l-11.44 25.36c-13.98,28.69 -165.13,25.08 -204.96,33.82l-26.97 9.33c91.32,-7.57 3.22,14.94 84.7,14.36 42.38,-0.31 58.74,-7.04 93.33,-9.53 41.69,-2.99 185.55,-16.68 209.95,-26.88l48.09 -1365.47c13.8,-154.02 -31.07,-120.65 43.98,-242.44 205.52,-333.54 485.37,-678.82 695.49,-1044.48 53.6,-93.28 421.17,-678.75 422.81,-726.09 -24.54,-8.99 -210.93,-128.1 -227.65,-145.68 -40.73,-12.64 -37.87,-23.56 -74.92,-35.91l-53.04 42.08z"/>
   <path class="fil2" d="M1091.5 2015.42c-30.49,27.38 -203.55,134.06 -233.53,146.97 20.87,78.68 171.58,299.99 216.76,378.68 73.99,128.85 135.94,217.08 215.58,356.78 131.14,230.04 318.29,469.54 455.98,689.02 77.54,123.62 152.72,222.85 230.97,341.23 72.51,109.72 34.65,99.54 45.61,241.32 6.37,82.3 1.51,188.99 10.1,274.05 26.97,267.14 20.12,825.5 45.75,1102.19l308.81 32.57c33.66,-5.42 12.21,6.43 27.17,-21.33l-187.13 -27.85c-36.51,-62.99 -47.8,-1133.45 -63.05,-1371.6 -10.57,-165.25 32.5,-124.42 -46.65,-242.45l-174.5 -260.78c-30.68,-39.55 -30.35,-35.4 -56.66,-80.37l-316.81 -473.35c-10.86,-14.65 -20.79,-24.81 -30.66,-38.1 -19.69,-26.51 -35.06,-57.91 -55.83,-93.14 -19.1,-32.41 -33.88,-52.31 -51.74,-84.68l-431.18 -717.21 229.35 -148.68c-71.43,-9.71 -15.13,-3.13 -66.75,-38.4l-71.59 35.13z"/>
   <path class="fil3" d="M1451.57 4887.57l123.53 -5.45c13.45,21.01 -2.05,-3.94 15.8,27.34 46.75,81.98 37.11,136.58 187.95,189.32l109.98 48.82 62.13 -6.97c3.56,87.71 10.25,158.12 9.95,254.8 -0.5,167.4 -1.71,124.49 117.81,150.23 -25.63,-276.69 -18.78,-835.05 -45.75,-1102.19 -8.59,-85.06 -3.73,-191.75 -10.1,-274.05 -10.96,-141.78 26.9,-131.6 -45.61,-241.32 -78.25,-118.38 -153.43,-217.61 -230.97,-341.23 -137.69,-219.48 -324.84,-458.98 -455.98,-689.02 -79.64,-139.7 -141.59,-227.93 -215.58,-356.78 -45.18,-78.69 -195.89,-300 -216.76,-378.68 29.98,-12.91 203.04,-119.59 233.53,-146.97l-28.89 -43.08c-44.9,13.36 -292.77,176.48 -308.59,195.03l556.31 917.58 597.71 889.25c12.86,30.42 39.33,883.85 29.5,961.55 -22.75,-42.58 -17.32,-52.52 -57.85,-84.83l-132.31 -84.26c-51.15,-25.02 -123.71,-52.83 -181.22,-42.99 -59.71,87.05 -14.76,60.08 -7.69,124.76 2.08,19.05 1,15.13 -2.63,24.6l-104.27 14.54z"/>
   <path class="fil3" d="M4946.52 1998.8c16.72,17.58 203.11,136.69 227.65,145.68 -1.64,47.34 -369.21,632.81 -422.81,726.09 -210.12,365.66 -489.97,710.94 -695.49,1044.48 -75.05,121.79 -30.18,88.42 -43.98,242.44l-48.09 1365.47c191.89,-6.65 77.75,-90.95 115.36,-337.39l14.11 -59.54 64.97 7.4 -11.84 -21.04c162.55,-11.12 233.06,-87.75 288.08,-200.86l25.06 -44.98 119.7 1.22 -110.28 -8.41c3.17,-26.89 117.5,-233.16 -144.36,-124.63 -90.22,37.39 -193.64,95.1 -225.7,187.42 -14.5,-93.1 -5.63,-377.84 5,-477.03 9.12,-85.27 2.07,-156.21 6.99,-239.05 20.64,-348.01 -40.63,-154.88 206.15,-533.14l298.71 -445.12c83.93,-139.53 178.32,-256.94 295.43,-459.85l279.6 -464.82c27.3,-47.95 76.44,-114.94 92.99,-162.36 -46.05,-15.5 -99.15,-64.34 -146.19,-90.46 -54.65,-30.34 -102.01,-80.75 -162.97,-93.86 -17.02,18.8 -13.41,12.91 -28.09,42.34z"/>
   <path class="fil0" d="M3487.77 1279.25c-14.29,17.97 -34.61,37.51 -49.91,60.77 -23.77,36.17 -13.74,40.76 -44.95,69.69 -3.93,34.3 -8.06,67.11 -26.12,89.7l-0.26 101.33 33.95 123.88c30.97,22.35 32.73,37.13 53.32,63.68 23.03,29.7 34.97,33.13 56.78,53.92 157.72,74.95 242.2,67.14 376.64,-22.37 16.03,-26.05 30.77,-33.43 54.73,-66.89 20.11,-28.04 30.54,-63.54 53.78,-84.97l4.88 -64.47c11.76,-101.15 -7.54,-129.77 -19.32,-214.21 -24.02,-24.18 -44.41,-61.12 -61.49,-87.53 -43.48,-28.73 -47.6,-47.5 -113.56,-80.87 -188.38,-44.18 -191.92,-13.73 -318.47,58.34z"/>
   <path class="fil4" d="M1796.1 2025.46c31.77,56.08 123.92,121.08 201.73,153.87 193.95,81.75 414.74,68.85 609.65,1.84 128.58,-44.22 229.15,54.32 293.56,18.58 27.72,-47.32 1.6,-187.08 -4.6,-252.43l-5.9 85.22c-181.3,-4.32 -366.74,-0.74 -548.51,-0.74 -119.59,0 -450.9,14.84 -545.93,-6.34z"/>
   <path class="fil4" d="M4189.27 2032.14l-997.4 -6.06c69.13,128.09 309.83,217.54 489.06,218.45 107.25,0.56 208.81,-16.08 295.96,-56.3 79.45,-36.67 181.62,-99.66 212.38,-156.09z"/>
   <path class="fil5" d="M2077.19 1811.27c-21.89,17.02 15.59,7.63 -43.88,13.66l-371.3 -1.54c17.02,51.33 43.41,98.51 68.58,126.09l1165.85 -2.16 -2.57 -129.11c-15.42,16.21 -10.92,13.28 -36.77,22.54l-297.59 0c-36.76,-16.21 -7.8,-1.85 -37.86,-29.96l2.02 33.58c-81.45,29.91 -143.4,51.08 -239.05,46.62 -122.25,-5.72 -135.67,-46.33 -207.43,-79.72z"/>
   <path class="fil6" d="M3059.13 1263.8l382.18 -3.93c56.98,8.03 20.13,-6.57 46.46,19.38 126.55,-72.07 130.09,-102.52 318.47,-58.34 21.49,-21.16 -1.19,-20.23 103.7,-18.4 42.02,0.73 84.08,0.35 126.11,0.35 81.93,0 173.51,-7.06 253.67,5.2l-48.19 -80.65 -1102.2 -3.07c-29.78,36.74 -60.86,81.84 -80.2,139.46z"/>
   <path class="fil3" d="M4126.2 2877.47l111.64 -8.97c53.24,-96.77 -28.3,-160.49 -92.2,-226.58 -67.59,-69.92 -136.28,-77.45 -260.97,-70.17l-22.9 -27.8c7.21,41.34 1.42,10.49 -8.86,23.31 -85.36,0.72 -76.59,-5.25 -123.45,36.38 -3.73,67.07 13.43,68.99 51.34,105.31 63.44,60.8 115.42,104.91 202.56,142.06 70.22,29.93 106.88,3.61 142.84,26.46z"/>
   <path class="fil3" d="M1903.93 2881.9c162.58,5.16 240.08,-48.3 342.64,-146.48 34.26,-32.8 60.52,-41.29 60.59,-111.58 -51.05,-47.62 -42.07,-41.36 -131.11,-40.21l18.98 -91.01 -38.9 95.58c-143.48,-4.57 -195.3,-3.46 -297.33,103.19 -29.98,31.34 -70.89,72.81 -79.14,121.59 -15.12,89.63 55.57,64.67 124.27,68.92z"/>
   <path class="fil7" d="M1769.44 1094.44l1017.51 0.79c-29.03,-51.23 -62.76,-93.14 -116.51,-117.35l-773.7 -0.91c-58.11,28.19 -89.79,70.75 -127.3,117.47z"/>
   <path class="fil8" d="M3191.87 2026.08l997.4 6.06 79.57 -103.21c-149.22,7.39 -1081.12,19.54 -1160.79,-10.63 19.86,49.19 45.06,80.81 83.82,107.78z"/>
   <path class="fil5" d="M3510.58 1842.22c-25.19,20.43 21.45,8.17 -46.47,15.94l-390.82 -3.99 34.76 64.13c79.67,30.17 1011.57,18.02 1160.79,10.63l49.69 -104.89c-60.25,21.75 -245.09,9.36 -340.14,10.53 -12.57,0.15 -45.16,0.65 -56.12,-1.17l-35.05 -13.55c-134.44,89.51 -218.92,97.32 -376.64,22.37z"/>
   <path class="fil8" d="M1796.1 2025.46c95.03,21.18 426.34,6.34 545.93,6.34 181.77,0 367.21,-3.58 548.51,0.74l5.9 -85.22 -1165.85 2.16c22.08,39.3 27.23,56.35 65.51,75.98z"/>
   <path class="fil9" d="M1668.47 1274.52l388.23 -19.18c44.95,1.93 28.13,-5.73 54.48,12.3 126.82,-65.84 239.62,-95.09 384.84,1.89 46.15,30.83 59.07,60.91 97.82,81.09 50.12,-19.7 142.63,-122.94 155.85,-169.5 -29.89,-16.22 -969.52,-18.25 -1035.97,0.66l-45.25 92.74z"/>
   <path class="fil7" d="M3139.33 1124.34l1102.2 3.07c-29.83,-42.13 -34.71,-64.69 -83.88,-85.47 -85.33,12.39 -865.11,12.12 -936.09,-3.01 -21.73,5.81 0.98,-5.63 -19.84,9.19 -11.49,8.17 -13.97,11.44 -22.53,21.41 -14.36,16.74 -24.28,32.1 -39.86,54.81z"/>
   <path class="fil10" d="M1621.6 1656.05l5.38 2.61 355.75 1.57c-1.23,-48.23 -16.23,-96.94 -1.36,-146.07l9.47 -22.4c1.42,-3.49 3.48,-7.54 5.63,-11.1l-2.92 -24.51c-26.73,-52.74 -294.46,10.48 -370.45,-32.45l-1.5 232.35z"/>
   <path class="fil11" d="M1713.72 1181.78c66.45,-18.91 1006.08,-16.88 1035.97,-0.66 30.58,-21.29 43.99,-39.56 37.26,-85.89l-1017.51 -0.79c-25.21,23.48 -42.76,50.21 -55.72,87.34z"/>
   <path class="fil7" d="M3323.12 954.41c-29.63,9.41 -28.03,10.91 -55.13,32.28 -32.64,25.74 -28.44,17.95 -46.43,52.24 70.98,15.13 850.76,15.4 936.09,3.01 -26.58,-47.67 -66.93,-71.88 -117.95,-101.85 -19.61,21.91 -0.94,10.05 -37.92,18.79 -53.13,12.56 -666.41,-2.46 -678.66,-4.47z"/>
   <path class="fil10" d="M3010.04 1469.1l2.19 180.06 348.5 2.69 5.8 -51.11 0.26 -101.33c-9.37,-66.01 47.37,-51.68 -200.66,-52.36 -27.44,-0.07 -66.15,-2.55 -91.86,-1.13 -24.85,1.36 -18.97,-0.33 -39.41,7.31l-24.82 15.87z"/>
   <path class="fil10" d="M4009.83 1603.52c2.56,63.96 1.48,23.23 14.77,39.26l263.7 1.28c34.48,-0.35 54.63,-2.78 80.81,-24.95l-2.63 -161.46c-74.44,-26.58 -263.97,-10.46 -352.6,-10.65l-4.05 156.52z"/>
   <path class="fil12" d="M1896.74 976.97l773.7 0.91c-64.32,-75.22 -255.95,-122.38 -385.64,-122.54 -149.29,-0.2 -304.49,40.8 -388.06,121.63z"/>
   <path class="fil2" d="M1780.04 2703.6c9.36,66.32 -43.69,125.83 -4.17,165.97 29.4,42.67 72.21,28.86 127.78,28.08l0.28 -15.75c-68.7,-4.25 -139.39,20.71 -124.27,-68.92 8.25,-48.78 49.16,-90.25 79.14,-121.59 102.03,-106.65 153.85,-107.76 297.33,-103.19l38.9 -95.58c22.55,-66.63 -35.05,-92.04 -87.33,-80.21 -43.65,9.87 -103.63,51.04 -138.22,66.26 -61.66,27.13 -80.78,26.7 -122.04,87.21 -34.95,51.26 -26.38,93.35 -67.4,137.72z"/>
   <path class="fil12" d="M3323.12 954.41c12.25,2.01 625.53,17.03 678.66,4.47 36.98,-8.74 18.31,3.12 37.92,-18.79 -199.66,-137.43 -593.95,-110.8 -716.58,14.32z"/>
   <path class="fil2" d="M3861.77 2543.95l22.9 27.8c124.69,-7.28 193.38,0.25 260.97,70.17 63.9,66.09 145.44,129.81 92.2,226.58 85.43,-30.62 8.01,-116.86 12.18,-180.06 -120.31,-204.88 22.58,-129.31 -262.79,-266.73 -38.83,-18.69 -64.46,-37.28 -106.23,-24.18 -71.54,22.44 -39.67,75.83 -19.23,146.42z"/>
   <path class="fil2" d="M4158.24 5133.43c75.63,33.55 216.35,23.01 274.61,-15.28 64.68,-42.5 113.9,-104.61 180.97,-146.5l5 -77.06 -39.58 -26.82 -119.7 -1.22 -25.06 44.98c-55.02,113.11 -125.53,189.74 -288.08,200.86l11.84 21.04z"/>
   <path class="fil2" d="M1888.83 5147.6l-109.98 -48.82c-150.84,-52.74 -141.2,-107.34 -187.95,-189.32 -17.85,-31.28 -2.35,-6.33 -15.8,-27.34l-123.53 5.45c-56.22,42.1 -49,84.63 1.87,125.76 45.5,36.79 77.04,60.78 112.76,92.92 74.18,66.79 221.95,86.82 322.63,41.35z"/>
   <path class="fil13" d="M3995.73 1667.99c-23.24,21.43 -33.67,56.93 -53.78,84.97 -23.96,33.46 -38.7,40.84 -54.73,66.89l35.05 13.55c10.96,1.82 43.55,1.32 56.12,1.17 95.05,-1.17 279.89,11.22 340.14,-10.53 31.81,-46.52 40.63,-114 48.84,-176.77 -26.54,49.72 -6.5,45.45 -45.18,60.18l-320.48 0.29c-10.88,-24.31 -29.72,34.71 -5.98,-39.75z"/>
   <path class="fil10" d="M2503.27 1618.44c77.74,38.63 283.26,10.54 382.02,17.03 9.97,-60.19 19.46,-73.75 2.2,-134.05l-388.98 -1.87 4.76 118.89z"/>
   <path class="fil14" d="M3020.08 1399.84c32.65,-40.18 120.08,-25.63 168.95,-25.55 64.86,0.08 129.73,0.06 194.59,-0.05 11.7,16.75 11.65,3.47 9.29,35.47 31.21,-28.93 21.18,-33.52 44.95,-69.69 15.3,-23.26 35.62,-42.8 49.91,-60.77 -26.33,-25.95 10.52,-11.35 -46.46,-19.38l-382.18 3.93 -39.05 136.04z"/>
   <path class="fil15" d="M3029.76 1732.48l43.53 121.69 390.82 3.99c67.92,-7.77 21.28,4.49 46.47,-15.94 -21.81,-20.79 -33.75,-24.22 -56.78,-53.92 -20.59,-26.55 -22.35,-41.33 -53.32,-63.68l-5.41 18.4c-89.79,-0.31 -291.14,14.66 -365.31,-10.54z"/>
   <path class="fil14" d="M1668.47 1274.52l-39.05 113.99c45.24,-24.98 122.13,-14.22 197.55,-14.22l148.99 -0.54c47.21,5.17 18.82,-6.16 42.27,14.48 22.7,-22.41 26.88,-38.69 43.7,-62.17 19.29,-26.95 36.11,-41.03 49.25,-58.42 -26.35,-18.03 -9.53,-10.37 -54.48,-12.3l-388.23 19.18z"/>
   <path class="fil16" d="M2503.27 1618.44l10.03 99.18c59.21,55.7 374.91,16.89 381.92,14.19 0.8,-38.59 4.07,-74.12 6.75,-113.49 1.09,-15.98 3.81,-43.07 3.05,-58.21 -2.51,-50.59 5.76,-27.93 -17.53,-58.69 17.26,60.3 7.77,73.86 -2.2,134.05 -98.76,-6.49 -304.28,21.6 -382.02,-17.03z"/>
   <path class="fil13" d="M1662.01 1823.39l371.3 1.54c59.47,-6.03 21.99,3.36 43.88,-13.66l-62.25 -98.21c-1.19,-1.7 -3.53,-5.04 -5.52,-7.36 -27.61,25.91 13.5,10.14 -44.98,17.76l-317.73 -0.64 -19.73 -64.16 -5.38 -2.61 40.41 167.34z"/>
   <path class="fil9" d="M3919.8 1301.78c10.92,-19.59 -11.51,-22.27 93.01,-20.46l302.67 12.41c3,1.58 6.36,4.64 8.74,6.09 2.42,1.46 5.84,4.27 8.49,6.72l-42.99 -98.48c-80.16,-12.26 -171.74,-5.2 -253.67,-5.2 -42.03,0 -84.09,0.38 -126.11,-0.35 -104.89,-1.83 -82.21,-2.76 -103.7,18.4 65.96,33.37 70.08,52.14 113.56,80.87z"/>
   <path class="fil15" d="M2521.65 1810.79c30.06,28.11 1.1,13.75 37.86,29.96l297.59 0c25.85,-9.26 21.35,-6.33 36.77,-22.54l1.35 -86.4c-7.01,2.7 -322.71,41.51 -381.92,-14.19l8.35 93.17z"/>
   <path class="fil16" d="M3012.23 1649.16l17.53 83.32c74.17,25.2 275.52,10.23 365.31,10.54l5.41 -18.4 -33.95 -123.88 -5.8 51.11 -348.5 -2.69z"/>
   <path class="fil14" d="M3981.29 1389.31c33.41,-30.69 231.31,-15.33 284.07,-15.65 57.05,-0.37 57.22,-6.24 92.94,16.13l-25.59 -83.25c-2.65,-2.45 -6.07,-5.26 -8.49,-6.72 -2.38,-1.45 -5.74,-4.51 -8.74,-6.09l-302.67 -12.41c-104.52,-1.81 -82.09,0.87 -93.01,20.46 17.08,26.41 37.47,63.35 61.49,87.53z"/>
   <path class="fil17" d="M4000.61 1603.52l9.22 0 4.05 -156.52c88.63,0.19 278.16,-15.93 352.6,10.65l-8.18 -67.86c-35.72,-22.37 -35.89,-16.5 -92.94,-16.13 -52.76,0.32 -250.66,-15.04 -284.07,15.65 11.78,84.44 31.08,113.06 19.32,214.21z"/>
   <path class="fil17" d="M3020.08 1399.84l-10.04 69.26 24.82 -15.87c20.44,-7.64 14.56,-5.95 39.41,-7.31 25.71,-1.42 64.42,1.06 91.86,1.13 248.03,0.68 191.29,-13.65 200.66,52.36 18.06,-22.59 22.19,-55.4 26.12,-89.7 2.36,-32 2.41,-18.72 -9.29,-35.47 -64.86,0.11 -129.73,0.13 -194.59,0.05 -48.87,-0.08 -136.3,-14.63 -168.95,25.55z"/>
   <path class="fil16" d="M1626.98 1658.66l19.73 64.16 317.73 0.64c58.48,-7.62 17.37,8.15 44.98,-17.76 -0.83,-73.48 -17.63,-130.98 -12.95,-225.04 -2.15,3.56 -4.21,7.61 -5.63,11.1l-9.47 22.4c-14.87,49.13 0.13,97.84 1.36,146.07l-355.75 -1.57z"/>
   <path class="fil17" d="M1629.42 1388.51l-6.32 35.19c75.99,42.93 343.72,-20.29 370.45,32.45 22.44,-25.83 21.3,-29.94 24.68,-67.92 -23.45,-20.64 4.94,-9.31 -42.27,-14.48l-148.99 0.54c-75.42,0 -152.31,-10.76 -197.55,14.22z"/>
   <path class="fil16" d="M3995.73 1667.99c-23.74,74.46 -4.9,15.44 5.98,39.75l320.48 -0.29c38.68,-14.73 18.64,-10.46 45.18,-60.18l1.74 -28.16c-26.18,22.17 -46.33,24.6 -80.81,24.95l-263.7 -1.28c-13.29,-16.03 -12.21,24.7 -14.77,-39.26l-9.22 0 -4.88 64.47z"/>
  </g>
 </g>
</svg>
